<svg width="54" height="54" viewBox="0 0 50 50" fill="none" xmlns="http://www.w3.org/2000/svg">
<path fill-rule="evenodd" clip-rule="evenodd" d="M29.7104 39.6466C33.6969 35.6615 35.9324 30.5881 36.4171 25.3824C30.4377 28.2712 26.3164 34.3923 26.3164 41.4824V43.0395L29.7104 39.6466ZM24.9914 34.2428C27.0112 28.8854 31.2083 24.5985 36.5055 22.4591C36.3212 16.7667 34.0561 11.1291 29.7104 6.78486C27.0856 4.16091 22.8282 4.16091 20.2034 6.78486C15.8646 11.1222 13.5999 16.7486 13.4092 22.4317C18.7386 24.5618 22.963 28.8625 24.9914 34.2428ZM23.6665 43.1086L20.2034 39.6466C16.2081 35.6526 13.9714 30.5655 13.4935 25.3476C19.512 28.222 23.6665 34.3638 23.6665 41.4824V43.1086Z" fill="url(#paint0_linear_4926_82125)"/>
<path fill-rule="evenodd" clip-rule="evenodd" d="M44.1877 23.6113C34.3122 23.6113 26.3167 31.6068 26.3167 41.4823V45.2148H30.0492C39.9247 45.2148 47.9202 37.2193 47.9202 27.3438V23.6113H44.1877ZM2.06348 23.6113V27.3438C2.06348 37.2193 10.059 45.2148 19.9344 45.2148H23.6669V41.4823C23.6669 31.6069 15.6714 23.6113 5.79592 23.6113H2.06348Z" fill="url(#paint1_linear_4926_82125)"/>
<defs>
<linearGradient id="paint0_linear_4926_82125" x1="27.9513" y1="4.81689" x2="-1.23116" y2="31.2553" gradientUnits="userSpaceOnUse">
<stop stop-color="#32ED88"/>
<stop offset="1" stop-color="#2AC2D5"/>
</linearGradient>
<linearGradient id="paint1_linear_4926_82125" x1="2.06348" y1="39.262" x2="44.4724" y2="26.9363" gradientUnits="userSpaceOnUse">
<stop stop-color="#32EC8A"/>
<stop offset="0.506681" stop-color="#2AC3D4"/>
<stop offset="1" stop-color="#32EB8B"/>
</linearGradient>
</defs>
</svg>
